<svg xmlns="http://www.w3.org/2000/svg" xmlns:xlink="http://www.w3.org/1999/xlink" viewBox="0 0 124 32"><g transform="translate(1.242 0)" id="ss2320440969_1"><path d="M 0 14.717 C 0 11.321 0 9.623 0.371 8.23 C 1.393 4.388 4.405 1.388 8.262 0.369 C 9.661 0 11.393 0 14.858 0 C 18.322 0 20.054 0 21.453 0.369 C 25.31 1.388 28.322 4.388 29.344 8.23 C 29.715 9.623 29.715 11.321 29.715 14.717 C 29.715 18.113 29.715 19.81 29.344 21.204 C 28.322 25.046 25.31 28.046 21.453 29.065 C 20.054 29.434 18.322 29.434 14.858 29.434 C 11.393 29.434 9.661 29.434 8.262 29.065 C 4.405 28.046 1.394 25.046 0.371 21.204 C 0 19.81 0 18.113 0 14.717 Z M 21.35 11.992 L 21.35 6.664 L 12.857 6.664 L 7.464 11.992 L 7.464 17.73 L 12.857 17.73 L 12.857 11.992 Z M 21.349 17.731 L 12.844 17.731 L 12.844 22.572 L 21.349 22.572 Z" fill="rgb(0,0,0)"/><path d="M 45.177 9.413 C 47.777 9.413 49.807 10.95 50.166 13.498 L 47.841 13.709 C 47.671 12.298 46.614 11.434 45.177 11.434 C 43.422 11.434 42.153 12.719 42.153 15.015 C 42.153 17.289 43.443 18.574 45.177 18.574 C 46.657 18.574 47.65 17.752 47.862 16.426 L 50.187 16.636 C 49.765 19.1 47.819 20.617 45.177 20.617 C 42.069 20.617 39.743 18.553 39.743 15.015 C 39.743 11.456 42.048 9.413 45.177 9.413 Z M 54.289 20.406 L 51.921 20.406 L 51.921 4.042 L 54.289 4.042 Z M 66.687 15.899 L 58.716 15.899 C 58.843 17.542 59.964 18.574 61.613 18.574 C 62.987 18.574 63.896 18.005 64.192 17.036 L 66.581 17.163 C 66.158 19.079 64.192 20.617 61.676 20.617 C 58.484 20.617 56.2 18.511 56.2 15.015 C 56.2 11.498 58.463 9.413 61.613 9.413 C 64.721 9.413 66.687 11.456 66.687 14.741 Z M 61.592 11.434 C 60.006 11.434 58.864 12.361 58.737 14.046 L 64.298 14.046 C 64.234 12.488 63.346 11.435 61.592 11.435 Z M 78.394 15.899 L 70.424 15.899 C 70.551 17.542 71.671 18.574 73.32 18.574 C 74.695 18.574 75.604 18.005 75.9 17.036 L 78.289 17.163 C 77.866 19.079 75.9 20.617 73.384 20.617 C 70.191 20.617 67.908 18.511 67.908 15.015 C 67.908 11.498 70.17 9.413 73.32 9.413 C 76.428 9.413 78.394 11.456 78.394 14.741 Z M 73.299 11.434 C 71.713 11.434 70.572 12.361 70.445 14.046 L 76.005 14.046 C 75.942 12.488 75.054 11.435 73.299 11.435 Z M 84.953 20.406 L 83.05 20.406 L 78.356 9.602 L 80.957 9.602 L 84.001 16.826 L 87.003 9.602 L 89.625 9.602 Z M 91.841 4.379 C 92.666 4.379 93.343 5.032 93.343 5.854 C 93.343 6.675 92.666 7.328 91.841 7.328 C 91.448 7.33 91.07 7.176 90.792 6.899 C 90.514 6.622 90.359 6.245 90.362 5.854 C 90.362 5.032 91.038 4.379 91.841 4.379 Z M 93.025 20.406 L 90.658 20.406 L 90.658 9.602 L 93.025 9.602 L 93.025 20.406 Z M 100.603 9.413 C 103.817 9.413 106.248 11.582 106.248 15.015 C 106.248 18.426 103.817 20.617 100.603 20.617 C 97.368 20.617 94.937 18.426 94.937 15.015 C 94.937 11.582 97.368 9.413 100.603 9.413 Z M 100.603 11.434 C 98.722 11.434 97.347 12.761 97.347 15.015 C 97.347 17.247 98.722 18.574 100.603 18.574 C 102.464 18.574 103.859 17.247 103.859 15.015 C 103.859 12.761 102.464 11.434 100.603 11.434 Z M 117.902 14.909 L 121.517 20.406 L 118.684 20.406 L 116.168 16.531 L 113.631 20.406 L 110.861 20.406 L 114.371 14.867 L 110.946 9.602 L 113.758 9.602 L 116.168 13.309 L 118.536 9.602 L 121.348 9.602 L 117.902 14.909 Z" fill="rgb(0,0,0)"/></g></svg>